<?xml version="1.0" encoding="UTF-8" standalone="no"?>
<!-- Created with Inkscape (http://www.inkscape.org/) -->

<svg
   xmlns:dc="http://purl.org/dc/elements/1.1/"
   xmlns:cc="http://creativecommons.org/ns#"
   xmlns:rdf="http://www.w3.org/1999/02/22-rdf-syntax-ns#"
   xmlns:svg="http://www.w3.org/2000/svg"
   xmlns="http://www.w3.org/2000/svg"
   xmlns:sodipodi="http://sodipodi.sourceforge.net/DTD/sodipodi-0.dtd"
   xmlns:inkscape="http://www.inkscape.org/namespaces/inkscape"
   id="svg2985"
   version="1.1"
   inkscape:version="0.92.3 (2405546, 2018-03-11)"
   width="1000"
   height="195.832"
   xml:space="preserve"
   sodipodi:docname="Maybank (2012) (Print).svg"><metadata
     id="metadata2991"><rdf:RDF><cc:Work
         rdf:about=""><dc:format>image/svg+xml</dc:format><dc:type
           rdf:resource="http://purl.org/dc/dcmitype/StillImage" /><dc:title></dc:title></cc:Work></rdf:RDF></metadata><defs
     id="defs2989"><clipPath
       clipPathUnits="userSpaceOnUse"
       id="clipPath3027"><path
         d="M 36,693.664 H 172.521 V 756 H 36 Z"
         id="path3029"
         inkscape:connector-curvature="0" /></clipPath><clipPath
       clipPathUnits="userSpaceOnUse"
       id="clipPath3131"><path
         d="M 0,0 H 612 V 792 H 0 Z"
         id="path3133"
         inkscape:connector-curvature="0" /></clipPath><clipPath
       clipPathUnits="userSpaceOnUse"
       id="clipPath3463"><path
         d="M 0,0 H 612 V 792 H 0 Z"
         id="path3465"
         inkscape:connector-curvature="0" /></clipPath><clipPath
       clipPathUnits="userSpaceOnUse"
       id="clipPath3627"><path
         d="m 507.643,40.108 h 68.26 v 31.168 h -68.26 z"
         id="path3629"
         inkscape:connector-curvature="0" /></clipPath></defs><sodipodi:namedview
     pagecolor="#ffffff"
     bordercolor="#666666"
     borderopacity="1"
     objecttolerance="10"
     gridtolerance="10"
     guidetolerance="10"
     inkscape:pageopacity="0"
     inkscape:pageshadow="2"
     inkscape:window-width="1360"
     inkscape:window-height="706"
     id="namedview2987"
     showgrid="false"
     fit-margin-left="0.5"
     fit-margin-bottom="0.5"
     fit-margin-top="0.5"
     fit-margin-right="0.5"
     inkscape:zoom="0.5"
     inkscape:cx="489.3532"
     inkscape:cy="220.00422"
     inkscape:window-x="-8"
     inkscape:window-y="-8"
     inkscape:window-maximized="1"
     inkscape:current-layer="svg2985"
     units="mm" /><path
     inkscape:connector-curvature="0"
     id="path4065"
     style="fill:#000000;fill-opacity:1;fill-rule:nonzero;stroke:none;stroke-width:6.63703108"
     d="m 636.81244,88.21056 c -3.6902,0 -7.60603,0.83627 -10.13474,1.80528 v 46.7778 c 1.95127,0.62386 5.65473,1.0951 9.36485,1.0951 13.24751,0 21.04602,-9.21883 21.04602,-25.46629 0,-15.42446 -7.4202,-24.21189 -20.27613,-24.21189 m -2.90703,70.49191 c -15.59702,0 -30.60334,-2.91367 -39.39078,-6.27864 V 29.300288 h 32.16307 v 41.388526 c 4.10169,-1.473428 11.12365,-2.595084 16.57266,-2.595084 27.2981,0 46.0079,15.225345 46.0079,42.02567 0,32.87986 -19.6788,48.58307 -55.35285,48.58307" /><path
     inkscape:connector-curvature="0"
     id="path4069"
     style="fill:#000000;fill-opacity:1;fill-rule:nonzero;stroke:none;stroke-width:6.63703108"
     d="m 753.56974,116.47635 c -17.31602,0.71017 -30.39097,2.30305 -30.39097,12.71656 0,7.11489 7.21444,11.02411 18.69652,11.02411 4.49991,0 9.5706,-0.64379 11.69445,-1.34069 z m -10.72543,42.2248 c -33.11216,0 -49.499,-10.17458 -49.499,-28.891 0,-23.22297 28.47951,-28.61223 60.22443,-30.01928 v -3.41808 c 0,-6.97552 -5.82067,-10.26084 -16.7585,-10.26084 -10.14138,0 -22.22079,2.80745 -29.79364,5.36935 l -7.82505,-17.866881 c 9.35158,-3.066318 22.36015,-6.942333 41.56771,-6.942333 28.6388,0 43.0677,9.670154 43.0677,32.906384 v 52.85068 c -7.99762,3.35834 -24.19198,6.272 -40.98365,6.272" /><path
     inkscape:connector-curvature="0"
     id="path4073"
     style="fill:#000000;fill-opacity:1;fill-rule:nonzero;stroke:none;stroke-width:6.63703108"
     d="M 855.14751,156.74918 V 99.92292 c 0,-7.32727 -4.12161,-12.13911 -15.61031,-12.13911 -5.99986,0 -11.30285,2.23666 -11.30285,2.23666 v 66.72871 H 796.07794 V 73.613741 c 11.72763,-3.763199 25.5592,-6.942336 43.85749,-6.942336 32.95285,0 47.37514,11.123661 47.37514,30.198495 v 59.87928 z" /><path
     inkscape:connector-curvature="0"
     id="path4077"
     style="fill:#000000;fill-opacity:1;fill-rule:nonzero;stroke:none;stroke-width:6.63703108"
     d="m 964.12684,156.74918 -32.1697,-43.69157 h -0.3982 v 43.69157 H 899.80075 V 29.298284 h 31.75819 v 77.474056 h 0.3982 L 961.0008,69.22002 h 36.25809 L 964.51842,109.98467 1000,156.74918 Z" /><path
     inkscape:connector-curvature="0"
     id="path4081"
     style="fill:#000000;fill-opacity:1;fill-rule:nonzero;stroke:none;stroke-width:6.63703108"
     d="m 534.00298,191.73961 h -33.72276 l 15.77623,-34.99042 -39.56997,-87.529156 h 34.99042 l 21.35134,62.175706 21.13229,-62.175706 h 35.01697 z" /><path
     inkscape:connector-curvature="0"
     id="path4085"
     style="fill:#000000;fill-opacity:1;fill-rule:nonzero;stroke:none;stroke-width:6.63703108"
     d="M 366.67072,39.201401 H 329.2246 L 304.50166,111.82379 279.74553,39.201401 H 242.29941 L 225.35508,156.74985 h 30.5967 l 9.74316,-80.785943 28.67197,80.785943 h 20.25622 l 28.67197,-80.785943 9.75643,80.785943 h 30.59672 z" /><path
     inkscape:connector-curvature="0"
     id="path4089"
     style="fill:#000000;fill-opacity:1;fill-rule:nonzero;stroke:none;stroke-width:6.63703108"
     d="m 447.94841,116.47635 c -17.35583,0.71017 -30.41751,2.30305 -30.41751,12.71656 0,7.11489 7.2211,11.02411 18.72307,11.02411 4.46673,0 9.52414,-0.64379 11.69444,-1.34069 z m -10.7188,42.2248 c -33.15861,0 -49.51225,-10.17458 -49.51225,-28.891 0,-23.22297 28.45959,-28.61223 60.23105,-30.01928 v -3.41808 c 0,-6.97552 -5.84723,-10.26084 -16.76513,-10.26084 -10.14803,0 -22.23405,2.80745 -29.82682,5.36935 l -7.81179,-17.866881 c 9.36486,-3.066318 25.15435,-6.942333 41.54118,-6.942333 28.66533,0 43.07434,9.670154 43.07434,32.906384 v 52.85068 c -7.97109,3.35834 -24.17872,6.272 -40.93058,6.272" /><path
     inkscape:connector-curvature="0"
     id="path4093"
     style="fill:#000000;fill-opacity:1;fill-rule:nonzero;stroke:none;stroke-width:6.63703108"
     d="m 97.929374,187.96712 c -49.731259,0 -90.0512253,-40.3266 -90.0512253,-90.0645 0,-49.724633 40.3199663,-90.1375009 90.0512253,-90.1375009 49.764446,0 90.064486,40.4128679 90.064486,90.1375009 0,49.7379 -40.30004,90.0645 -90.064486,90.0645 m 0,-187.96733587793 C 43.844212,-2.1587793e-4 0,43.810826 0,97.90262 0,152.00106 43.844212,195.832 97.929374,195.832 c 54.091796,0 97.922736,-43.83094 97.922736,-97.92938 0,-54.091794 -43.83094,-97.90283587793 -97.922736,-97.90283587793" /><path
     inkscape:connector-curvature="0"
     id="path4097"
     style="fill:#000000;fill-opacity:1;fill-rule:nonzero;stroke:none;stroke-width:6.63703108"
     d="m 58.865818,93.42196 c -7.008687,-1.79864 -13.174496,6.40472 -16.59921,12.59707 1.194674,-8.47547 11.608173,-22.353498 16.59921,-12.59707" /><path
     inkscape:connector-curvature="0"
     id="path4101"
     style="fill:#000000;fill-opacity:1;fill-rule:nonzero;stroke:none;stroke-width:6.63703108"
     d="M 43.459288,93.51887 C 45.808801,85.474769 51.377261,82.521302 54.3573,84.897349 50.308707,86.15174 47.375139,88.54773 43.459288,93.51887" /><path
     inkscape:connector-curvature="0"
     id="path4105"
     style="fill:#000000;fill-opacity:1;fill-rule:nonzero;stroke:none;stroke-width:6.63703108"
     d="m 61.348071,106.43983 c 3.610534,-3.03975 3.238875,-7.53966 -2.356149,-9.01973 -4.134858,-1.04864 -13.061667,6.43128 -14.030668,14.66784 3.583987,-4.57954 13.904564,-13.01521 16.386817,-5.64811" /><path
     inkscape:connector-curvature="0"
     id="path4109"
     style="fill:#000000;fill-opacity:1;fill-rule:nonzero;stroke:none;stroke-width:6.63703108"
     d="m 117.56173,127.8874 c 0.64378,-10.59935 -9.65689,-15.55057 -11.63471,-26.40875 -1.93139,-10.87145 16.07488,-28.240553 4.70566,-46.027798 21.47742,17.322651 4.65254,27.596774 15.49746,41.992498 -4.20789,-1.27432 -8.36267,-4.99768 -9.6237,-6.95562 -6.03306,7.94452 14.80057,18.86908 1.05529,37.39967" /><path
     inkscape:connector-curvature="0"
     id="path4113"
     style="fill:#000000;fill-opacity:1;fill-rule:nonzero;stroke:none;stroke-width:6.63703108"
     d="m 82.989431,42.41572 c 2.535339,0.01991 6.915796,1.811909 5.130438,3.849476 -5.953426,5.541925 -14.004154,3.258784 -20.388966,8.89363 2.621626,-6.975522 14.282899,-7.97108 15.258528,-12.743106" /><path
     inkscape:connector-curvature="0"
     id="path4117"
     style="fill:#000000;fill-opacity:1;fill-rule:nonzero;stroke:none;stroke-width:6.63703108"
     d="m 75.652848,65.823866 c -0.77653,0 -1.486694,-1.08184 -1.692444,-2.502162 1.022097,2.588444 3.590637,1.353952 2.130481,-2.389325 0.915913,0.01991 2.369429,0.146014 5.070701,-0.01391 -2.827375,1.466775 -4.075131,4.931315 -5.508738,4.904762 M 102.30716,50.266033 c 2.4889,-2.814104 0.20575,-6.650303 -10.028555,-7.904711 10.665705,5.170252 -6.484366,6.31846 -7.075066,15.285083 -5.595024,2.183581 -10.075014,-1.453514 -12.862572,1.055287 -2.681363,2.429155 -5.780854,0.749982 -4.87822,-2.044205 -3.232223,1.652618 -2.581808,6.052971 0.564151,7.420201 0.61726,0.272112 1.16811,0.849544 0.696895,1.30086 -3.444624,3.258783 -5.064061,6.112703 -1.460156,9.311755 1.977839,-3.617179 2.973399,-4.924678 5.170256,-6.690133 2.050834,1.353954 5.674659,0.391589 10.552868,-4.898124 0.232299,-0.305305 0.564163,-0.192469 0.438037,0.139375 -3.869381,13.333795 -13.765194,15.484195 -16.931062,14.853678 1.891564,2.887112 14.48866,4.639271 16.081526,-0.97564 3.577368,-12.690014 15.782862,-18.212023 5.229982,-17.966449 2.860564,-3.351691 12.444436,-6.477737 14.501916,-8.886977" /><path
     inkscape:connector-curvature="0"
     id="path4121"
     style="fill:#000000;fill-opacity:1;fill-rule:nonzero;stroke:none;stroke-width:6.63703108"
     d="m 107.63206,43.43982 c 5.10389,3.311876 7.51311,5.482194 10.84491,9.451132 0.63051,-5.415812 -2.43579,-16.127988 -6.99544,-18.590319 -1.95792,-1.061927 -4.78529,6.431281 -3.84947,9.139187" /><path
     inkscape:connector-curvature="0"
     id="path4125"
     style="fill:#000000;fill-opacity:1;fill-rule:nonzero;stroke:none;stroke-width:6.63703108"
     d="m 26.102128,86.92763 c 3.291961,-8.694505 11.309499,-19.041633 24.318079,-26.727324 2.999944,-7.76532 2.011025,-13.00858 33.517002,-25.240623 0.79645,-4.632651 0.657078,-10.240929 1.971199,-10.240929 1.353951,0 5.999873,2.110573 9.325022,6.862686 1.38051,-0.106173 2.595099,-0.245574 3.437973,-0.418141 0.570802,-2.701267 2.455717,-10.141383 4.924677,-13.990858 2.2566,-3.537535 6.63705,-3.915847 12.29843,0.763258 5.86049,4.772027 9.99538,6.749864 18.0328,17.023984 6.79631,3.046402 17.42222,6.955608 26.62113,18.251838 -4.00213,-2.674728 -8.52193,-3.657008 -12.24531,-4.055234 7.50648,6.564035 12.45107,17.428849 8.70114,33.297992 -1.48669,-14.833772 -12.39133,-21.065934 -19.05491,-25.751677 3.61053,12.497517 -12.05947,8.156909 -16.84479,-1.247769 1.57961,0.50441 3.21897,0.438041 4.20789,-0.179191 -0.54425,-19.134558 -9.51751,-30.132123 -13.51964,-33.410821 -5.15697,-4.280879 -7.89806,5.986602 -9.6436,13.659017 -0.54424,2.568529 -2.747734,4.406977 -5.53528,4.327332 0.623867,-0.929174 1.314122,-3.411421 1.420316,-4.221148 -7.911345,0.670338 -16.844776,5.33618 -22.326965,7.80515 C 61.776154,49.733718 58.285072,52.879664 55.205501,63.439189 44.168126,68.13157 31.431667,80.841471 26.102128,86.92763" /><path
     inkscape:connector-curvature="0"
     id="path4129"
     style="fill:#000000;fill-opacity:1;fill-rule:nonzero;stroke:none;stroke-width:6.63703108"
     d="m 95.602442,84.244275 c 1.553071,1.778715 10.732078,15.650105 0.09298,33.291355 2.90701,-12.97541 -5.183525,-37.837722 -14.110338,-25.10789 6.059621,2.60834 8.03746,7.55294 6.411394,12.37141 -2.475625,-4.65255 -8.774162,-9.6635 -15.019612,-7.59939 -3.112771,1.11501 -7.247639,1.14157 -10.33385,-3.48444 -4.022055,-5.83395 2.727809,-13.147956 -8.767513,-12.563896 13.904569,-7.0419 9.875896,6.637016 16.579292,8.316196 7.7985,1.81854 8.714413,-2.95347 11.402427,-6.046332 2.157018,-2.634894 6.139256,-4.606105 10.32721,-1.805278 1.997748,-6.072879 -0.915914,-15.723118 4.778665,-20.800448 2.103932,-1.884915 8.794063,-1.61944 12.258593,1.095102 -4.92468,-0.05969 -10.718802,5.820676 -13.619194,22.333611" /><path
     inkscape:connector-curvature="0"
     id="path4133"
     style="fill:#000000;fill-opacity:1;fill-rule:nonzero;stroke:none;stroke-width:6.63703108"
     d="m 63.856206,140.28271 c -0.670346,-0.54424 -2.508813,-2.9402 -2.336241,-5.50872 2.336241,1.50659 5.508727,2.26321 5.508727,2.26321 0,0 -1.499963,2.54862 -3.172486,3.24551 m 13.977583,-15.28507 c 1.387128,0.20574 2.575157,1.32076 3.829575,0.39821 1.227824,-0.91591 -0.05316,-4.61273 -1.022119,-5.85386 1.214577,-0.20574 6.052969,0.27876 5.807402,2.00438 -0.57078,4.61275 -3.437973,6.05961 -10.35377,9.37812 1.181412,-1.08846 0.98892,-3.51763 1.738912,-5.92685 m -27.683053,-3.72338 c 0.59069,-1.42697 3.245501,-3.25878 4.426903,-3.37825 -0.471229,3.98886 0.988922,9.43122 0.988922,9.43122 0,0 -5.369355,-3.39817 -5.415825,-6.05297 m -17.654499,-17.6877 c -2.528714,-1.76542 -6.497649,-5.90031 -6.915784,-7.40028 0.497783,-0.56415 2.614998,-2.834 5.316257,-3.61054 1.951285,-0.51104 3.23223,0.57078 2.94685,1.16147 -0.278757,0.71017 -2.017661,0.71017 -2.528715,2.19686 -0.789799,2.26323 1.725623,2.98002 2.249958,4.00212 0.298664,0.65708 0.988908,2.34289 -1.068566,3.65037 M 166.72353,59.987925 c 7.08835,24.703018 5.10387,48.490135 -2.2035,62.726555 0.91592,-8.90689 -6.90914,-21.93538 -3.76319,-37.154081 -14.81384,14.375791 8.3361,49.658261 -25.2539,72.828141 5.01094,-8.09718 7.2941,-28.16757 5.5021,-35.4882 1.792,0.7367 3.61053,2.92029 4.75874,4.81847 2.77428,-9.24539 3.1327,-22.29378 -2.15704,-35.54129 1.8451,0.26549 5.6083,1.9181 7.34056,3.52426 0.83628,-20.402236 -14.10369,-21.928758 -16.91114,-27.470665 0,5.966686 6.96888,10.97765 8.24982,18.782785 -4.89813,-2.322957 -8.45557,-2.555255 -10.97764,-2.322957 3.7831,2.774277 12.17895,19.061557 9.6967,32.083407 -3.61719,-3.03975 -6.96888,-4.44016 -10.59271,-4.76539 4.44681,6.78305 6.25872,24.42428 0.71018,32.548 -0.15266,-1.8451 -0.81636,-7.14145 -2.90703,-9.3383 -2.62826,9.90245 -10.34714,14.05059 -15.65675,15.31826 6.59056,-6.8826 5.30961,-19.108 -4.33399,-22.35352 -8.661314,-2.96011 -19.698699,2.92693 -24.1787,23.56146 -6.252079,1.85173 -25.054786,-2.15703 -13.81164,-14.31607 6.849397,2.32296 24.271616,-9.31175 23.103495,-17.50849 -1.692432,-11.3825 -12.046213,-15.37799 -20.282782,-15.31163 -10.167918,0.18583 -17.037246,9.67016 -25.346797,13.76521 -6.935701,-1.04203 -9.305121,-2.02431 -12.829389,-11.30286 -0.457959,-5.6282 5.561836,-9.60379 5.468917,-15.45102 -4.937957,1.02212 -6.159173,-6.398083 -15.776227,1.32078 -0.749985,-1.40705 0.517701,-4.73221 0.517701,-4.73221 -3.557447,3.23224 -4.227785,7.02862 -4.300808,7.82505 1.74554,3.44464 4.174689,6.53749 8.906902,9.61043 5.674662,15.17888 11.495337,16.8647 17.508485,17.42885 1.022107,1.44023 5.468917,6.76976 11.130302,7.62595 -0.969011,-2.86057 -1.108383,-10.8781 -0.537614,-12.88248 12.30506,-12.33824 21.450881,-4.8384 22.638921,-1.54642 -10.937841,2.20347 -3.205697,25.58573 -21.338057,15.18552 -0.730061,2.39596 0.272116,8.36265 2.575179,11.85373 1.851714,15.9687 21.988473,12.10594 28.233923,14.87358 -0.696884,-15.53729 7.917974,-26.8866 15.318269,-25.95079 7.42682,0.92919 9.33829,13.02186 -3.30524,24.4641 3.09949,1.69245 16.66557,-0.6106 23.58136,-5.62157 0.63051,3.97559 -4.47337,15.59702 -10.825,23.88004 53.20244,-12.23206 76.96299,-69.90121 52.04759,-114.966635" /></svg>