<?xml version="1.0" encoding="utf-8"?>
<!-- Generator: Adobe Illustrator 25.0.1, SVG Export Plug-In . SVG Version: 6.00 Build 0)  -->
<svg version="1.0" id="Layer_1" xmlns="http://www.w3.org/2000/svg" xmlns:xlink="http://www.w3.org/1999/xlink" x="0px" y="0px"
	 viewBox="0 0 463 317" style="enable-background:new 0 0 463 317;" xml:space="preserve">
<style type="text/css">
	.st0{fill:#4B4948;}
	.st1{fill:#FEA30B;}
</style>
<g>
	<path class="st0" d="M141.5,171v-20.7h10v20.5c0,5.3,2.6,7.9,6.6,7.9c4,0,6.7-2.4,6.7-7.6v-20.8h10v20.4c0,11.9-6.6,17.1-16.8,17.1
		C147.9,187.8,141.5,182.5,141.5,171"/>
	<path class="st0" d="M181,158.6h9.7v4c1.8-2.4,4.4-4.6,8.3-4.6c5.9,0,9.4,4,9.4,10.5v18.7h-9.7v-15.4c0-3.2-1.6-4.8-3.9-4.8
		c-2.4,0-4.1,1.7-4.1,4.8v15.4H181V158.6z"/>
	<path class="st0" d="M250.4,173v-0.1c0-3.5-2.5-6.5-5.9-6.5c-3.5,0-5.8,2.9-5.8,6.4v0.1c0,3.5,2.5,6.4,5.9,6.4
		C248.1,179.3,250.4,176.5,250.4,173 M229.3,173v-0.1c0-8.1,6.5-14.9,15.3-14.9c8.9,0,15.3,6.7,15.3,14.8v0.1
		c0,8.1-6.5,14.9-15.4,14.9C235.7,187.8,229.3,181.1,229.3,173"/>
	<path class="st0" d="M264.7,158.6h9.7v4c1.8-2.4,4.4-4.6,8.3-4.6c5.9,0,9.4,4,9.4,10.5v18.7h-9.7v-15.4c0-3.2-1.6-4.8-3.9-4.8
		s-4.1,1.7-4.1,4.8v15.4h-9.7V158.6z"/>
	<path class="st0" d="M314.3,172.1h-6.1v6.8h6.2c3.1,0,4.8-1.2,4.8-3.4v-0.1C319.1,173.4,317.6,172.1,314.3,172.1 M317.7,161.6
		c0-2.1-1.6-3.2-4.5-3.2h-5v6.5h4.8c3,0,4.8-1.1,4.8-3.2V161.6z M298.5,150.3h17.1c3.8,0,6.8,1.2,9,3.2c2.5,2.3,3.7,7,2.3,10.7
		c-0.7,1.8-2.1,2.9-3.8,3.7c4.3,1.4,7,4,7,9v0.1c0,6.3-5,10.2-13.6,10.2h-17.9V150.3z"/>
	<path class="st0" d="M351.6,176.8v-1.3c-1-0.4-2.4-0.7-3.8-0.7c-2.8,0-4.5,1.4-4.5,3.5v0.1c0,1.9,1.4,3.1,3.4,3.1
		C349.6,181.5,351.6,179.7,351.6,176.8 M334,179v-0.1c0-6,4.4-9,10.9-9c2.6,0,5.1,0.5,6.7,1.1v-0.5c0-3-1.8-4.7-5.5-4.7
		c-2.9,0-5.2,0.6-7.7,1.6l-2-7c3.1-1.3,6.5-2.2,11.2-2.2c5,0,8.3,1.2,10.5,3.5c2.1,2.1,3,5.1,3,9.1v16.4h-9.6v-3
		c-1.9,2.2-4.6,3.6-8.2,3.6C338,187.8,334,184.6,334,179"/>
	<path class="st0" d="M366.8,158.6h9.7v4c1.8-2.4,4.4-4.6,8.3-4.6c5.9,0,9.4,4,9.4,10.5v18.7h-9.7v-15.4c0-3.2-1.6-4.8-3.9-4.8
		s-4.1,1.7-4.1,4.8v15.4h-9.7V158.6z"/>
	<polygon class="st0" points="400,148.7 409.7,148.7 409.7,168.2 417.2,158.6 428.2,158.6 418.6,170 428.5,187.1 417.7,187.1 
		412.2,177.4 409.7,180.4 409.7,187.1 400,187.1 	"/>
	<path class="st1" d="M95.6,161c-4-0.5-5.7-0.7-5.7-0.7v-14.4c1,0.2,7.4,1.8,7.4,1.8c4,0.8,6,3.7,6,7.2
		C103.3,158.5,100.2,161.6,95.6,161 M111.5,167c0,0,4.6-4.6,4.6-13.4c0-7.3-4.8-15.4-13.3-18.4L74.8,125l-0.1,49.5
		c0,0,0,7.2-7.8,8.7c-5.2,1-10.4-3.8-10.4-9.8c0,0,0-39,0-55l-22.1-8v65.1c0,23.3,20.7,33.1,33.4,30.9c15.2-2.7,22-14.6,22-27.6
		v-4.6l10.7,0.4c3.5,0,6.2,3.1,6.2,6.5c0,2.9-2,6.1-6.1,6.4l-5.9,0.5c-0.9,4-3,9.4-7.6,14.8l17.2-3.1c6.9-1.3,15-7.4,15-17.6
		C119.4,177.7,118,171.4,111.5,167"/>
	<rect x="214.4" y="148.7" class="st0" width="9.7" height="7"/>
	<rect x="214.4" y="158.6" class="st0" width="9.7" height="28.5"/>
</g>
</svg>
